<?xml version="1.0"?>
<svg version="1.1" xmlns="http://www.w3.org/2000/svg" width="80" height="80" style=""><path fill="#c9c122" d="M46.283203125,49.1103515625l0.037109375,0.037109375l-0.037109375-0.037109375l0.037109375,0.07421875q0,0.1298828125-0.3525390625,0.37109375q-0.185546875,0.1298828125-0.185546875,0.2412109375l0,0.185546875l0,0.111328125q0,0.5380859375-0.185546875,0.9091796875q-0.037109375,0.037109375-0.037109375,0.185546875l0,0.2412109375q0,0.111328125-0.037109375,0.1484375q-0.0927734375,0.0927734375-0.0927734375,0.185546875l0,0.1484375l0,0.037109375q0,0.037109375,0.0185546875,0.12060546875t0.0185546875,0.12060546875q0,0.4267578125-0.22265625,1.2060546875q-0.0185546875,0.0927734375-0.07421875,0.3896484375t-0.13916015625,0.49169921875t-0.23193359375,0.30615234375q-0.259765625,0.5009765625-0.4638671875,0.630859375q0,0.1298828125-0.1484375,0.5751953125q-0.0185546875,0.111328125-0.1298828125,0.333984375t-0.1298828125,0.3525390625q0,0.1298828125-0.13916015625,0.259765625t-0.17626953125,0.2041015625q-0.037109375,0.1298828125-0.185546875,0.296875t-0.185546875,0.22265625q-0.1298828125,0.3154296875-0.4638671875,0.5751953125q-0.037109375,0.037109375-0.1669921875,0.3154296875t-0.333984375,0.37109375q-0.037109375,0.037109375-0.51953125,0.22265625q-0.1484375,0.0927734375-0.1484375,0.185546875q0,0.0185546875,0.0185546875,0.0927734375t0.0185546875,0.111328125q0,0.07421875-0.037109375,0.1484375q-0.07421875,0.185546875-0.36181640625,0.408203125t-0.36181640625,0.3525390625q-0.0927734375,0.1669921875-0.30615234375,0.47314453125t-0.26904296875,0.39892578125q-0.7421875,1.0205078125-1.521484375,1.0205078125q-0.111328125,0-0.333984375-0.07421875q-0.4638671875-0.111328125-0.8720703125-0.6123046875q-0.111328125,0.07421875-0.28759765625,0.22265625t-0.21337890625,0.1669921875q-0.185546875,0.4453125-0.5751953125,0.4453125q-0.185546875,0-0.37109375-0.185546875q-0.111328125-0.111328125-0.2041015625-0.111328125q-0.0556640625,0-0.10205078125,0.04638671875t-0.12060546875,0.13916015625t-0.1484375,0.1484375q-0.2783203125,0.2041015625-0.4638671875,0.2041015625q-0.1484375,0-0.22265625-0.037109375q-0.333984375,0.111328125-0.408203125,0.111328125q-0.259765625,0-0.3525390625-0.185546875l-0.111328125,0q-0.0556640625,0-0.1669921875,0.037109375t-0.1669921875,0.037109375q-0.037109375,0-0.0927734375-0.0185546875t-0.07421875-0.0185546875q-0.037109375,0-0.13916015625,0.0185546875t-0.15771484375,0.0185546875t-0.1484375-0.0185546875t-0.1484375-0.0185546875q-0.2041015625-0.037109375-0.69580078125,0.0927734375t-0.67724609375,0.1298828125q-0.1484375,0-0.22265625-0.037109375t-0.2412109375-0.037109375q-0.0927734375,0-0.28759765625,0.037109375t-0.30615234375,0.037109375q-0.0927734375,0-0.3154296875-0.07421875q-0.1484375,0.07421875-0.333984375,0.07421875q-0.07421875,0-0.2041015625-0.0185546875t-0.185546875-0.0185546875q-0.0927734375,0-0.2783203125-0.0185546875t-0.2783203125-0.0185546875q-0.07421875,0-0.296875-0.07421875t-0.3154296875-0.07421875q-0.1484375-0.037109375-0.4638671875-0.037109375l-0.1484375,0q-0.1298828125,0-0.408203125,0.037109375t-0.4267578125,0.037109375q-0.0556640625,0-0.1484375-0.0185546875t-0.1484375-0.0185546875l-0.2783203125,0l-0.51953125,0q-0.037109375,0.037109375-0.1669921875,0.037109375q-0.111328125,0-0.185546875-0.07421875l-0.333984375,0.111328125q-0.0556640625,0-0.1298828125-0.037109375t-0.111328125-0.037109375l-0.037109375,0q-0.37109375,0.185546875-0.51953125,0.185546875q-0.0556640625,0-0.2041015625,0.0185546875t-0.22265625,0.0185546875q-0.111328125,0-0.259765625-0.07421875q-0.1484375,0.07421875-0.22265625,0.07421875t-0.22265625-0.037109375t-0.2041015625-0.037109375q-0.0185546875,0-0.0556640625,0.0185546875t-0.0556640625,0.0185546875q-0.07421875,0-0.185546875-0.02783203125t-0.22265625-0.06494140625l-0.1669921875-0.0556640625l-0.1484375,0l-0.3896484375,0q-0.37109375,0-0.482421875-0.07421875q-0.2783203125,0.111328125-0.6123046875,0.111328125q-0.37109375,0-0.6494140625-0.111328125l-0.111328125,0q-0.07421875,0-0.25048828125-0.02783203125t-0.25048828125-0.02783203125q-0.111328125,0-0.22265625,0.0556640625q-0.185546875,0.185546875-0.408203125,0.185546875l-0.07421875,0q-0.0556640625-0.0185546875-0.111328125-0.0556640625l-0.0927734375-0.0185546875q-0.037109375,0-0.111328125,0.04638671875t-0.1484375,0.06494140625q-0.0185546875,0-0.06494140625,0.0185546875t-0.08349609375,0.0185546875q-0.0556640625,0-0.22265625-0.04638671875t-0.2412109375-0.06494140625l-0.111328125,0l-0.333984375,0q-0.4267578125,0-0.5751953125-0.2041015625q-0.22265625-0.0927734375-0.22265625-0.705078125q0-0.482421875,0.111328125-1.0390625q-0.07421875-0.4453125-0.07421875-0.8720703125l0-0.185546875q-0.07421875-0.22265625-0.07421875-0.5009765625q0-0.7607421875,0.482421875-0.7607421875l0.3154296875,0q0.296875,0,0.4453125,0.07421875q0.0185546875,0,0.0556640625,0.0185546875t0.0556640625,0.0185546875q0.0927734375,0,0.4638671875-0.185546875q0.07421875-0.037109375,0.22265625-0.037109375q0.07421875,0,0.23193359375,0.0185546875t0.23193359375,0.0185546875q0.1484375,0,0.22265625-0.037109375q0.556640625-0.111328125,0.5751953125-0.111328125q0.185546875,0,0.259765625,0.07421875q0.185546875,0.037109375,0.30615234375-0.1669921875t0.2041015625-0.54736328125t0.10205078125-0.38037109375q-0.1484375,0.07421875-0.3154296875,0.07421875q-0.22265625,0-0.22265625-0.185546875l0-0.037109375q0.037109375-0.185546875,0.5009765625-0.5380859375q-0.037109375-0.07421875-0.037109375-0.259765625l0-0.0927734375q0-0.0185546875-0.0185546875-0.07421875t-0.0185546875-0.07421875q0-0.0556640625,0.0185546875-0.1669921875t0.0185546875-0.1669921875q0-0.0927734375-0.111328125-0.1484375q-0.1669921875-0.0556640625-0.1669921875-0.1669921875q0-0.0556640625,0.1669921875-0.2041015625t0.185546875-0.1669921875q0.111328125-0.4453125,0.111328125-0.9462890625q0-0.3154296875-0.0556640625-0.9833984375t-0.0556640625-1.001953125q0-0.4267578125,0.037109375-0.6494140625l-0.185546875,0.0927734375q-0.2041015625,0-0.2041015625-0.2041015625q0-0.07421875,0.06494140625-0.15771484375t0.185546875-0.17626953125t0.13916015625-0.111328125q-0.111328125-0.66796875-0.111328125-0.7236328125l0-0.111328125q-0.1484375-0.296875-0.1484375-0.6865234375q0-0.2041015625,0.07421875-0.4267578125q0.037109375-0.111328125,0.037109375-0.37109375l0-0.4638671875q0-0.296875,0.037109375-0.408203125q-0.037109375-0.185546875-0.037109375-0.6123046875l0-0.6123046875q-0.037109375-0.22265625-0.037109375-0.6865234375l0-0.6865234375q0-0.0556640625-0.0185546875-0.2041015625t-0.0185546875-0.2412109375q0-0.66796875,0.111328125-0.8349609375q-0.07421875-0.22265625-0.07421875-0.8349609375l0-0.2412109375q0-0.1484375,0.0185546875-0.47314453125t0.0185546875-0.47314453125q-0.0185546875-0.111328125-0.10205078125-0.36181640625t-0.10205078125-0.36181640625q-0.0556640625-0.07421875-0.08349609375-0.2041015625t-0.08349609375-0.1669921875t-0.2041015625-0.037109375q-0.408203125,0-0.5751953125-0.111328125q-0.22265625,0.07421875-0.408203125,0.07421875q-0.22265625,0-0.2783203125-0.1484375q-0.0927734375-0.0927734375-0.408203125-0.0927734375q-0.1484375,0-0.3896484375,0.02783203125t-0.259765625,0.02783203125t-0.333984375-0.00927734375t-0.5009765625-0.07421875t-0.259765625-0.23193359375q-0.111328125-0.07421875-0.111328125-0.6494140625q0-0.7421875,0.111328125-1.521484375q-0.259765625,0.1298828125-0.4267578125,0.1298828125q-0.1484375,0-0.1484375-0.0927734375t0.1484375-0.296875q0.037109375-0.0556640625,0.15771484375-0.1669921875t0.185546875-0.21337890625t0.08349609375-0.19482421875q-0.037109375-0.111328125-0.037109375-0.37109375q0-0.185546875,0.037109375-0.259765625q0.1298828125-0.3154296875,0.59375-0.3154296875q0.1669921875,0,0.2041015625,0.037109375l0.111328125,0q0.259765625,0,0.408203125,0.07421875q0.1484375-0.07421875,0.3154296875-0.07421875q0.111328125,0,0.185546875,0.037109375l0.1484375,0l0.3154296875,0q0.07421875,0,0.296875-0.0185546875t0.296875-0.0185546875l0.2412109375,0q0.4453125,0,0.66796875,0.07421875q0.0185546875,0,0.06494140625,0.0185546875t0.06494140625,0.0185546875q0.07421875,0,0.19482421875-0.0556640625t0.21337890625-0.0556640625l0.111328125,0q0.07421875,0,0.19482421875-0.0185546875t0.19482421875-0.0185546875t0.1484375,0.037109375q0.2783203125,0,0.7978515625-0.1484375q0.0185546875,0,0.07421875-0.0185546875t0.07421875-0.0185546875q0.111328125,0,0.185546875,0.07421875q0.0927734375-0.07421875,0.2783203125-0.1484375l0.111328125,0q0.22265625,0,0.37109375,0.07421875q0.037109375,0,0.2783203125,0.06494140625t0.259765625,0.08349609375l0.111328125,0l0.2783203125,0q0.1484375,0.037109375,0.296875,0.037109375q0.22265625,0,0.37109375-0.07421875l0.1298828125,0q0.0556640625,0,0.19482421875,0.0185546875t0.21337890625,0.0185546875q0.482421875,0,0.7607421875,0.111328125q0.07421875-0.037109375,0.37109375-0.037109375q0.1669921875-0.111328125,0.6123046875-0.111328125q0.2783203125,0,0.4267578125,0.07421875q0.37109375,0.037109375,1.0947265625,0.037109375q0.0927734375,0.0185546875,0.3896484375-0.02783203125t0.408203125-0.04638671875q0.1484375,0,0.185546875,0.037109375q0.556640625-0.185546875,0.5751953125-0.185546875q0.1484375,0,0.1484375,0.1484375q0.1484375-0.07421875,0.3154296875-0.07421875q0.259765625,0,0.408203125,0.1484375q0.07421875,0,0.296875-0.0185546875t0.2783203125-0.0185546875q0.185546875-0.185546875,0.6494140625-0.185546875q0.0185546875,0,0.0556640625,0.0185546875t0.0556640625,0.0185546875q0.4453125,0.111328125,0.5380859375,0.111328125q0.296875,0,0.51953125,0.1484375q0.1484375-0.07421875,0.3154296875-0.07421875q0.185546875,0,0.333984375,0.07421875q0.111328125-0.037109375,0.4638671875-0.037109375q0.22265625,0,0.296875,0.037109375q0.296875-0.07421875,0.4638671875-0.07421875l0.111328125,0q0.0556640625,0,0.23193359375,0.037109375t0.25048828125,0.037109375l0.07421875,0q0.1484375-0.07421875,0.2041015625-0.07421875t0.19482421875,0.08349609375t0.21337890625,0.10205078125q0.7607421875,0.2783203125,1.001953125,0.3154296875q0.51953125,0.0556640625,1.2431640625,0.37109375q0.1484375,0,0.37109375,0.12060546875t0.3154296875,0.12060546875q0.111328125,0,0.185546875-0.037109375q0.037109375-0.037109375,0.111328125-0.037109375q0.1298828125,0,0.1669921875,0.07421875l0.07421875,0.1484375l0,0.07421875q0,0.037109375,0.111328125,0.111328125q0.0556640625,0.037109375,0.22265625,0.1298828125t0.22265625,0.1298828125q0.185546875,0.0556640625,0.5751953125,0.30615234375t0.4638671875,0.38037109375q0.07421875,0.0556640625,0.1669921875,0.15771484375t0.2041015625,0.259765625t0.1484375,0.19482421875q0.0927734375,0.1484375,0.2412109375,0.1484375q0.0556640625,0,0.2412109375-0.111328125t0.3525390625-0.111328125q0.2412109375,0,0.2412109375,0.1484375q0,0.07421875-0.111328125,0.21337890625t-0.1669921875,0.17626953125q-0.111328125,0.111328125-0.111328125,0.259765625q0,0.037109375,0.07421875,0.259765625q0.1669921875,0.1669921875,0.3154296875,0.4638671875q0.111328125,0.1669921875,0.36181640625,0.51025390625t0.36181640625,0.51025390625q0.07421875-0.07421875,0.22265625-0.07421875t0.1484375,0.185546875q0,0.2041015625-0.111328125,0.3154296875q0.0185546875,0.037109375,0.185546875,0.296875q0.037109375,0.0556640625,0.28759765625,0.185546875t0.25048828125,0.2412109375q0,0.07421875-0.07421875,0.1484375q0.1484375-0.0556640625,0.1484375,0.07421875q0,0.0556640625-0.07421875,0.25048828125t-0.07421875,0.25048828125l0,0.037109375q0.259765625,0.4267578125,0.259765625,0.8349609375q0.2412109375,0.408203125,0.333984375,1.4658203125q0.111328125,0.3896484375,0.185546875,0.8720703125t0.08349609375,0.77001953125t0.02783203125,0.93701171875t0.0185546875,0.81640625q0.22265625-0.111328125,0.333984375-0.111328125q0.1298828125,0,0.1669921875,0.07421875z M40.048828125,59.0927734375l0.259765625-0.1484375l-0.259765625,0.1484375q0.2412109375-0.1669921875,0.71435546875-0.49169921875t0.71435546875-0.49169921875q-0.1669921875,0.0927734375-1.5029296875,0.9833984375l0.07421875,0z M42.4794921875,56.55078125q0-0.07421875,0.037109375-0.07421875q-0.7236328125,0.556640625-5.6220703125,4.1748046875l0.111328125,0q0.1298828125,0,0.296875-0.0927734375t0.41748046875-0.28759765625t0.26904296875-0.21337890625q0.185546875-0.1298828125,0.56591796875-0.39892578125t0.56591796875-0.39892578125q0.2783203125-0.185546875,0.8349609375-0.5751953125t0.81640625-0.5751953125q0.7978515625-0.482421875,1.1318359375-0.6123046875q0.0927734375-0.037109375,0.12060546875-0.17626953125t0.10205078125-0.19482421875q0-0.111328125,0.06494140625-0.21337890625t0.15771484375-0.2041015625t0.1298828125-0.15771484375z M36.4306640625,61.15234375q0.037109375-0.037109375,0.037109375-0.111328125l0-0.07421875l-0.1484375,0.1484375q0.037109375,0.037109375,0.111328125,0.037109375z M43.57421875,54.732421875l-0.1484375,0.111328125q0.037109375-0.037109375,0.1484375-0.111328125q-0.0556640625,0.1669921875-1.0205078125,0.6494140625q-0.5009765625,0.2783203125-1.298828125,0.8349609375q1.2431640625-0.7236328125,2.3193359375-1.484375z M41.94140625,55.3447265625l0.22265625-0.1669921875l-0.8349609375,0.5380859375q0.1484375-0.07421875,0.6123046875-0.37109375q0.1669921875-0.111328125,0.4638671875-0.3154296875t0.5380859375-0.36181640625t0.4453125-0.28759765625q0.296875-0.1484375,0.408203125-0.259765625q0.07421875-0.037109375,0.15771484375-0.15771484375t0.15771484375-0.17626953125q0.185546875-0.1484375,0.296875-0.58447265625t0.111328125-0.82568359375l0-0.22265625q-2.8388671875,1.6884765625-6.1416015625,3.5625q-0.185546875,0.111328125-0.556640625,0.32470703125t-0.556640625,0.32470703125q-0.07421875,0.037109375-0.13916015625,0.19482421875t-0.15771484375,0.21337890625q-0.1484375,0.111328125-0.5009765625,0.2041015625l-0.296875,0.296875q-0.0927734375,0.0927734375-0.19482421875,0.296875t-0.19482421875,0.2783203125q-0.1298828125,0.0927734375-0.482421875,0.185546875q-0.0185546875,0.0556640625-0.06494140625,0.1669921875t-0.06494140625,0.1669921875q-0.296875,0.3896484375-0.482421875,0.4267578125q-0.037109375,0.037109375-0.1484375,0.037109375q-0.037109375,0-0.10205078125-0.037109375t-0.10205078125-0.037109375q-0.07421875,0-0.111328125,0.037109375q-0.07421875,0.07421875-0.259765625,0.07421875l-0.5009765625,0q-0.0556640625,0.0556640625-0.2783203125,0.2041015625t-0.2783203125,0.259765625q-0.0556640625,0.0927734375-0.17626953125,0.2783203125t-0.17626953125,0.2783203125q-0.1669921875,0.3154296875-0.51025390625,0.8720703125t-0.39892578125,0.6494140625q0.482421875-0.1484375,1.04833984375-0.41748046875t0.93701171875-0.49169921875t1.02978515625-0.62158203125t0.89990234375-0.54736328125t6.3828125-3.9892578125z M28.2294921875,61.337890625q0.5009765625-0.22265625,1.02978515625-0.56591796875t1.19677734375-0.8349609375t0.96484375-0.67724609375q-0.0927734375-0.0927734375-0.4267578125-0.0927734375l-0.4453125,0q-0.07421875-0.037109375-0.2783203125-0.037109375l-0.296875,0q-0.037109375,0-0.2783203125-0.037109375t-0.37109375-0.037109375q-0.3525390625,0-0.408203125,0.2041015625l-0.3154296875,0.9462890625t-0.37109375,1.1318359375z M22.3662109375,60.892578125l0.3896484375-0.2783203125l-0.4267578125,0.3154296875l0.037109375-0.037109375q0.9462890625-0.59375,3.19140625-2.2080078125q0.0185546875-0.0185546875,0.185546875-0.1669921875t0.296875-0.25048828125t0.28759765625-0.17626953125t0.26904296875-0.0556640625q0.037109375-0.07421875,0.037109375-0.22265625l0-0.2041015625q-1.818359375,1.5029296875-5.4736328125,3.8037109375q0.4638671875-0.07421875,0.51953125-0.111328125q0.296875-0.1484375,0.6865234375-0.408203125z M21.234375,55.5673828125l0,0.07421875q1.6142578125-1.373046875,4.3974609375-3.48828125q-1.595703125,0.9091796875-2.8017578125,1.669921875q-0.037109375,0.0185546875-0.36181640625,0.21337890625t-0.47314453125,0.30615234375q-0.1669921875,0.0927734375-0.4267578125,0.2783203125q-0.22265625,0.0556640625-0.22265625,0.259765625l0,0.07421875q-0.037109375,0.0927734375-0.0556640625,0.30615234375t-0.0556640625,0.30615234375z M21.345703125,52.2275390625l0.296875-0.3154296875q-0.296875,0.2783203125-0.296875,0.3154296875q0.81640625-0.81640625,2.2822265625-1.8740234375q1.2431640625-0.9462890625,1.966796875-1.447265625q0.037109375-0.0185546875,0.41748046875-0.259765625t0.58447265625-0.43603515625t0.185546875-0.36181640625q-0.59375,0.333984375-1.21533203125,0.7607421875t-1.3916015625,0.9833984375t-1.15966796875,0.8349609375q-0.0556640625,0.037109375-0.37109375,0.26904296875t-0.62158203125,0.39892578125t-0.52880859375,0.1669921875q-0.111328125,0-0.1484375-0.037109375q0,0.07421875-0.0185546875,0.2412109375t-0.0185546875,0.259765625q0,0.07421875,0.0185546875,0.25048828125t0.0185546875,0.25048828125z M21.234375,50.056640625l0.22265625-0.1484375l-0.22265625,0.1484375q0.96484375-0.7421875,2.00390625-1.447265625q-0.185546875,0.111328125-0.58447265625,0.34326171875t-0.58447265625,0.34326171875q-0.0556640625,0.0185546875-0.25048828125,0.111328125t-0.30615234375,0.1484375t-0.21337890625,0.1669921875t-0.10205078125,0.22265625q0,0.0185546875,0.0185546875,0.0556640625t0.0185546875,0.0556640625z M25.2978515625,37.068359375l-0.07421875,0.037109375l0.07421875-0.037109375q-0.111328125,0.0185546875-0.5751953125,0.37109375q0.0927734375-0.0556640625,0.28759765625-0.185546875t0.28759765625-0.185546875z M38.97265625,37.9775390625q-0.408203125,0.2041015625-1.10400390625,0.6123046875t-0.97412109375,0.556640625q-0.185546875,0.111328125-0.65869140625,0.39892578125t-0.75146484375,0.43603515625q-0.037109375,0.0185546875-0.185546875,0.12060546875t-0.28759765625,0.17626953125t-0.21337890625,0.0556640625q0.2041015625,0.1484375,0.296875,0.1484375q0.1484375,0,0.3154296875-0.111328125q0.185546875-0.111328125,0.54736328125-0.34326171875t0.54736328125-0.34326171875t1.6328125-1.11328125q0.037109375-0.0185546875,0.25048828125-0.17626953125t0.3896484375-0.28759765625t0.19482421875-0.1298828125z M40.9951171875,39.03515625l-0.3896484375,0.185546875l0.3896484375-0.185546875q-0.5751953125,0.3154296875-4.341796875,2.5791015625q0.07421875,0.111328125,0.30615234375,0.34326171875t0.30615234375,0.38037109375q0.037109375-0.0927734375,0.17626953125-0.21337890625t0.34326171875-0.259765625t0.2412109375-0.17626953125q1.224609375-0.9833984375,1.447265625-1.1689453125z M42.015625,40.2041015625l-0.22265625,0.1669921875q0.037109375,0,0.13916015625-0.07421875t0.08349609375-0.0927734375q-0.7607421875,0.4638671875-3.376953125,2.1337890625q-0.07421875,0.037109375-0.296875,0.2041015625t-0.408203125,0.259765625t-0.3154296875,0.07421875q0.3525390625,0.6494140625,0.4453125,1.1318359375q2.00390625-1.5029296875,3.1171875-2.5419921875q0.0927734375-0.0927734375,0.259765625-0.25048828125t0.3154296875-0.30615234375t0.259765625-0.2783203125q0.111328125-0.111328125,0.111328125-0.185546875q0-0.1298828125-0.111328125-0.2412109375z M38.564453125,44.8427734375l0,0.037109375l0-0.037109375l0-0.037109375q0-0.0927734375,0.13916015625-0.21337890625t0.36181640625-0.259765625t0.43603515625-0.25048828125t0.43603515625-0.23193359375t0.259765625-0.13916015625q0.259765625-0.1484375,0.7421875-0.47314453125t0.7421875-0.47314453125q-1.41015625,0.7978515625-2.783203125,1.55859375q-0.07421875,0.0556640625-0.19482421875,0.07421875t-0.2041015625,0.0185546875t-0.1484375,0.037109375t-0.06494140625,0.1298828125q0,0.0185546875,0.0185546875,0.07421875t0.0185546875,0.07421875q0.037109375,0.0927734375,0.13916015625,0.34326171875t0.1669921875,0.4638671875t0.08349609375,0.38037109375q0.333984375-0.259765625,1.3916015625-1.04833984375t1.6142578125-1.23388671875q-2.0224609375,1.447265625-2.74609375,1.447265625q-0.296875,0-0.408203125-0.2412109375z M44.91015625,47.7744140625q-0.037109375,0.037109375-0.037109375,0.07421875q0.037109375-0.037109375,0.037109375-0.07421875q-1.3544921875,1.150390625-3.9892578125,3.154296875q2.6904296875-1.6884765625,3.33984375-2.0595703125l0.2041015625-0.10205078125t0.296875-0.15771484375t0.1484375-0.1484375q0.037109375-0.07421875,0.037109375-0.22265625q0-0.07421875-0.0185546875-0.23193359375t-0.0185546875-0.23193359375z M38.67578125,52.1904296875l0.4453125-0.3525390625l-0.4453125,0.3525390625q1.6328125-1.2060546875,3.48828125-2.708984375q-1.892578125,1.2802734375-2.8388671875,1.6328125q-0.37109375,0.1484375-0.5380859375,0.1484375q-0.111328125,0.037109375-0.111328125,0.6123046875l0,0.3154296875z M33.0908203125,58.072265625l0.037109375,0l-0.037109375,0q0.4267578125-0.1669921875,0.4453125-0.185546875q0.296875-0.1298828125,0.6123046875-0.3896484375q0.07421875-0.037109375,0.2783203125-0.12060546875t0.296875-0.21337890625q0.1298828125-0.259765625,0.296875-0.4267578125q0.296875-0.2783203125,0.82568359375-0.705078125t0.65869140625-0.5380859375t0.25048828125-0.296875t0.17626953125-0.333984375t0.15771484375-0.41748046875t0.13916015625-0.36181640625q0.111328125-0.5751953125,0.22265625-0.7236328125l0-0.037109375q0-0.1298828125,0.0927734375-0.39892578125t0.1484375-0.36181640625l0-0.07421875q0-0.3525390625,0.111328125-0.6865234375q0.0185546875-0.07421875,0.037109375-0.26904296875t0.037109375-0.26904296875q-0.037109375-0.111328125-0.037109375-0.37109375q0-0.2783203125,0.111328125-1.0576171875q-0.111328125-1.2802734375-0.111328125-1.3359375q0.1484375-1.150390625,0.185546875-1.26171875q-0.0185546875,0-0.06494140625,0.0185546875t-0.08349609375,0.0185546875q-0.296875,0-0.296875-0.1484375q0-0.07421875,0.111328125-0.185546875q0.0185546875-0.0185546875,0.0927734375-0.0556640625t0.12060546875-0.07421875t0.04638671875-0.0927734375q-0.07421875-0.37109375-0.07421875-0.6494140625q-0.037109375-0.0927734375-0.1484375-0.52880859375t-0.2041015625-0.62158203125q-0.037109375,0.0185546875-0.37109375,0.2412109375q-0.037109375,0.037109375-0.111328125,0.037109375q-0.185546875,0-0.185546875-0.185546875q0-0.1298828125,0.07421875-0.1669921875q0.037109375-0.037109375,0.12060546875-0.08349609375t0.13916015625-0.07421875t0.10205078125-0.0927734375t0.04638671875-0.12060546875q0-0.111328125-0.037109375-0.1484375q-0.07421875-0.111328125-0.13916015625-0.28759765625t-0.1298828125-0.39892578125t-0.10205078125-0.3154296875q-0.185546875-0.1484375-0.4267578125-0.630859375q-0.0556640625-0.0927734375-0.2041015625-0.23193359375t-0.2041015625-0.23193359375q-0.1669921875-0.111328125-0.2041015625-0.111328125q-0.07421875,0-0.1484375,0.037109375q-0.037109375,0.037109375-0.111328125,0.037109375q-0.1484375-0.0556640625-0.1484375-0.1484375q0-0.111328125,0.111328125-0.22265625q-0.5380859375-0.482421875-1.373046875-0.81640625q-0.1484375-0.0556640625-0.64013671875-0.30615234375t-0.80712890625-0.25048828125q-0.1484375,0-0.26904296875-0.0556640625t-0.17626953125-0.0556640625q-0.037109375,0-0.259765625,0.07421875q-0.333984375,0.111328125-0.3896484375,0.111328125q-0.111328125,0-0.185546875-0.07421875q-0.0556640625-0.037109375-0.08349609375-0.1298828125t-0.06494140625-0.111328125q-0.111328125,0.0556640625-0.2783203125,0.0556640625q-0.259765625,0-0.37109375-0.0556640625q-0.07421875,0-0.22265625,0.08349609375t-0.2412109375,0.08349609375q-0.111328125-0.111328125-0.37109375-0.111328125l-0.037109375,0q-0.22265625,0.111328125-0.3525390625,0.111328125q-0.51953125-0.07421875-0.7978515625-0.07421875q-0.3896484375,0-0.6865234375,0.1484375q-0.0556640625,0.037109375-0.1484375,0.06494140625t-0.1298828125,0.04638671875t-0.0927734375,0.08349609375t-0.07421875,0.17626953125q0.07421875,0.22265625,0.07421875,0.4638671875q0,0.0556640625-0.0185546875,0.15771484375t-0.0185546875,0.13916015625q0.037109375,0.037109375,0.037109375,0.185546875l0,0.1669921875l0.037109375,0q0.185546875,0,0.185546875,0.185546875l0,0.037109375q0,0.07421875-0.10205078125,0.1669921875t-0.12060546875,0.1298828125q0.037109375,0.037109375,0.037109375,0.1669921875q0,0.1484375-0.037109375,0.185546875q0.037109375,0.1484375,0.037109375,0.482421875q0,0.2041015625-0.0185546875,0.56591796875t-0.0185546875,0.51025390625q0.07421875-0.037109375,0.259765625-0.037109375q0.2783203125,0,0.2783203125,0.1484375q0,0.037109375-0.07421875,0.185546875q-0.0556640625,0.111328125-0.2412109375,0.26904296875t-0.22265625,0.26904296875q0,0.111328125-0.07421875,0.408203125q0,0.07421875,0.08349609375,0.185546875t0.06494140625,0.1669921875q-0.0185546875,0.07421875-0.0927734375,0.13916015625t-0.0927734375,0.12060546875l0,0.185546875q0.07421875,0.1484375,0.07421875,0.6123046875q0,0.037109375,0.08349609375,0.0556640625t0.185546875,0.06494140625t0.13916015625,0.10205078125q0.037109375,0.037109375,0.037109375,0.1298828125q0,0.07421875-0.06494140625,0.15771484375t-0.17626953125,0.17626953125t-0.1298828125,0.111328125l0,0.259765625q0,0.3525390625-0.111328125,1.0205078125t-0.111328125,1.001953125l0,0.1484375q0.1484375,0.37109375,0.1484375,0.8720703125q0,0.0556640625-0.0185546875,0.1484375l-0.0185546875,0.0927734375q-0.1484375,0.890625-0.1484375,0.9091796875q0,0.037109375,0.0185546875,0.0927734375t0.0185546875,0.0927734375q0.0185546875,0,0.0556640625-0.0185546875t0.0556640625-0.0185546875q0.259765625,0,0.259765625,0.296875q0,0.185546875-0.111328125,0.3525390625q-0.07421875,0.07421875-0.07421875,0.22265625q0,0.07421875,0.037109375,0.21337890625t0.037109375,0.21337890625t-0.037109375,0.1484375q0.07421875,0.296875,0.07421875,0.6494140625q0,0.296875-0.07421875,0.66796875q-0.0185546875,0.0556640625-0.02783203125,0.3154296875t-0.04638671875,0.37109375q0,0.0927734375,0.0185546875,0.259765625t0.0185546875,0.2412109375q0,0.22265625-0.111328125,0.37109375q0,0.037109375,0.0185546875,0.1484375t0.0185546875,0.1669921875q0,0.1669921875-0.037109375,0.51025390625t-0.037109375,0.51025390625l0,0.1484375q0.1484375-0.037109375,0.6865234375-0.037109375q0.333984375-0.111328125,0.7236328125-0.111328125q0.2783203125,0,0.7978515625,0.07421875l0.259765625,0l0.5380859375,0q0.07421875,0,0.3896484375,0.0556640625t0.51953125,0.0556640625q0.22265625,0,0.333984375-0.037109375q0.1298828125-0.037109375,0.7607421875-0.1484375q0.07421875-0.037109375,0.185546875-0.037109375q0.0556640625,0,0.15771484375,0.037109375t0.15771484375,0.037109375q0.0185546875,0,0.0556640625-0.0185546875t0.0556640625-0.0185546875z M21.197265625,56.1796875l0.185546875-0.111328125l-0.185546875,0.111328125q0.66796875-0.408203125,1.97607421875-1.2802734375t1.97607421875-1.2802734375q1.1318359375-0.6865234375,1.2802734375-0.7607421875q0.2041015625-0.0927734375,0.2041015625-0.51953125q0-0.07421875-0.0185546875-0.25048828125t-0.0185546875-0.25048828125q-0.51953125,0.408203125-1.56787109375,1.23388671875t-1.54931640625,1.23388671875q-0.4267578125,0.2783203125-1.38232421875,1.0205078125t-0.89990234375,0.853515625z M21.16015625,43.525390625l0.1484375-0.07421875l-0.1484375,0.07421875q1.0205078125-0.6123046875,1.0947265625-0.6494140625q-0.0927734375,0.037109375-0.408203125,0.06494140625t-0.51953125,0.111328125t-0.2041015625,0.26904296875q0,0.1298828125,0.037109375,0.2041015625z M26.7080078125,40.66796875l-0.6123046875,0.333984375l0.6123046875-0.333984375q-1.6513671875,0.927734375-3.228515625,1.892578125q-0.3525390625,0.185546875-0.97412109375,0.5751953125t-0.82568359375,0.5009765625q-0.037109375,0.0185546875-0.1484375,0.08349609375t-0.1669921875,0.10205078125t-0.111328125,0.0927734375t-0.0556640625,0.1298828125l0,0.037109375q0,0.0556640625-0.0185546875,0.23193359375t-0.0185546875,0.23193359375q2.560546875-1.9853515625,3.8408203125-2.6533203125q0.0556640625-0.037109375,0.630859375-0.25048828125t0.853515625-0.43603515625t0.22265625-0.5380859375z M31.8291015625,37.7734375q0.2412109375-0.1298828125,0.6865234375-0.38037109375t0.6865234375-0.38037109375q-0.1484375-0.0556640625-0.408203125,0.08349609375t-0.58447265625,0.3896484375t-0.38037109375,0.28759765625z M21.123046875,45.529296875l0.037109375,0l-0.037109375,0q0.556640625-0.4267578125,1.66064453125-1.150390625t1.53076171875-1.0205078125q0.1298828125-0.0927734375,0.65869140625-0.408203125t0.84423828125-0.5751953125t0.4638671875-0.556640625q-0.07421875-0.037109375-0.36181640625,0.15771484375t-0.59375,0.43603515625t-0.36181640625,0.2783203125q-0.259765625,0.1669921875-1.9853515625,1.2431640625q-1.2060546875,0.705078125-1.55859375,0.9091796875q-0.0927734375,0.0556640625-0.1484375,0.0927734375t-0.08349609375,0.111328125t-0.037109375,0.111328125t-0.0185546875,0.1669921875t-0.00927734375,0.2041015625z M21.197265625,46.60546875q0,0.0185546875,0.0185546875,0.0556640625t0.0185546875,0.0556640625q2.0595703125-1.41015625,4.0634765625-2.89453125q-1.521484375,0.96484375-3.154296875,1.85546875q-0.1669921875,0.111328125-0.7236328125,0.3896484375q-0.22265625,0.0927734375-0.22265625,0.22265625l0,0.3154296875z M22.2548828125,45.1953125l0.5751953125-0.3154296875q-0.4267578125,0.2041015625-0.5751953125,0.3154296875q0.890625-0.482421875,3.4697265625-2.0595703125q0.07421875-0.0556640625,0.408203125-0.22265625t0.49169921875-0.333984375t0.15771484375-0.3896484375l0-0.37109375q0-0.2783203125-0.037109375-0.3896484375q-0.07421875,0.07421875-0.07421875,0.185546875q0,0.2041015625-0.07421875,0.3525390625q-0.185546875,0.333984375-0.6123046875,0.6865234375q-0.51953125,0.4267578125-1.10400390625,0.82568359375t-1.4658203125,0.96484375t-1.15966796875,0.75146484375z M26.7451171875,43.1728515625l-0.1484375,0.111328125q0.1484375-0.07421875,0.1484375-0.111328125q-0.3525390625,0.3154296875-1.076171875,0.7978515625q0.0556640625-0.037109375,0.38037109375-0.19482421875t0.5009765625-0.30615234375t0.19482421875-0.296875z M26.7451171875,44.15625q-1.26171875,1.001953125-3.376953125,2.634765625q1.3173828125-0.81640625,2.6162109375-1.55859375q0.1298828125-0.07421875,0.39892578125-0.23193359375t0.39892578125-0.23193359375l0-0.296875q0-0.2412109375-0.037109375-0.3154296875z M26.6337890625,46.2158203125q-0.259765625,0.1484375-0.779296875,0.45458984375t-0.779296875,0.45458984375q0.22265625-0.111328125,0.8720703125-0.482421875l0.22265625-0.111328125t0.32470703125-0.17626953125t0.13916015625-0.13916015625z M25.2607421875,47.6630859375l0.5009765625-0.259765625q-0.111328125,0-0.5009765625,0.259765625q0.6123046875-0.37109375,1.2060546875-0.5751953125q0.2412109375-0.0927734375,0.2412109375-0.22265625l0-0.1484375q-0.296875,0.1669921875-0.80712890625,0.51025390625t-0.64013671875,0.43603515625z M25.6689453125,47.8486328125q-0.0927734375,0.0556640625-0.482421875,0.28759765625t-0.6494140625,0.39892578125q0.185546875-0.111328125,0.56591796875-0.34326171875t0.56591796875-0.34326171875z M44.5947265625,51.35546875q-0.0185546875,0.07421875-0.259765625,0.2041015625t-0.54736328125,0.2783203125t-0.36181640625,0.185546875q-0.37109375,0.2041015625-1.0390625,0.60302734375t-0.7421875,0.43603515625q-0.333984375,0.2041015625-1.01123046875,0.60302734375t-1.19677734375,0.7236328125t-0.9833984375,0.64013671875q0.6494140625-0.37109375,1.9111328125-1.1318359375t1.9111328125-1.150390625q0.259765625-0.1298828125,0.7421875-0.41748046875t0.7421875-0.41748046875q0.037109375-0.0185546875,0.2041015625-0.0927734375t0.26904296875-0.1298828125t0.22265625-0.1484375t0.13916015625-0.185546875z M40.419921875,53.025390625l0.037109375-0.037109375q0-0.0185546875-0.07421875,0.02783203125t-0.1484375,0.10205078125l-0.07421875,0.0556640625q0.07421875-0.037109375,0.259765625-0.1484375q0.1484375-0.0927734375,0.43603515625-0.28759765625t0.43603515625-0.28759765625q-2.1708984375,1.3544921875-2.96875,1.9296875q0.333984375-0.2412109375,1.0390625-0.67724609375t1.0576171875-0.67724609375z M38.82421875,53.58203125q0.0185546875,0.0185546875-0.07421875,0.07421875l0.07421875-0.07421875l-0.1669921875,0.07421875q-0.1669921875,0.0927734375-0.30615234375,0.185546875t-0.13916015625,0.1669921875q0.0927734375-0.07421875,0.30615234375-0.21337890625t0.30615234375-0.21337890625z M38.52734375,52.8212890625q0.037109375-0.037109375,0.037109375-0.07421875q-0.037109375,0.037109375-0.037109375,0.07421875q0.296875-0.22265625,0.37109375-0.296875q-0.037109375,0.037109375-0.1484375,0.037109375t-0.1484375-0.037109375q-0.07421875,0.1484375-0.07421875,0.296875z M38.787109375,50.427734375l0-0.037109375l0,0.037109375l0,0.1298828125q3.265625-2.671875,4.787109375-4.119140625q-0.51953125,0.296875-1.521484375,0.88134765625t-1.521484375,0.88134765625q-0.2783203125,0.1484375-0.779296875,0.45458984375t-0.779296875,0.45458984375q-0.185546875,0.0927734375-0.185546875,0.408203125q0,0.0927734375,0.0185546875,0.30615234375t0.0185546875,0.30615234375q0,0.22265625-0.037109375,0.296875z M38.787109375,48.1640625l0-0.0556640625l0,0.0556640625q0.0185546875-0.0556640625,0.13916015625-0.15771484375t0.2783203125-0.22265625t0.19482421875-0.15771484375q0.4453125-0.3896484375,0.8720703125-0.6494140625q-0.111328125,0.0556640625-1.373046875,0.7607421875q-0.0556640625,0.037109375-0.07421875,0.10205078125t-0.0185546875,0.1669921875t-0.0185546875,0.15771484375z M38.861328125,47.162109375l0.07421875-0.07421875l-0.07421875,0.07421875q0.2041015625-0.2041015625,0.64013671875-0.54736328125t0.58447265625-0.47314453125q-0.0927734375,0.07421875-0.4267578125,0.22265625t-0.56591796875,0.32470703125t-0.23193359375,0.36181640625l0,0.111328125z M36.2451171875,41.2431640625l0.37109375-0.3896484375q-0.37109375,0.3154296875-0.37109375,0.3896484375q1.2802734375-1.224609375,2.6533203125-2.4306640625q-0.3896484375,0.22265625-1.54931640625,0.8720703125t-1.79052734375,1.0205078125q0.037109375,0.037109375,0.30615234375,0.21337890625t0.38037109375,0.32470703125z M34.6865234375,40.2041015625l-0.037109375-0.037109375l0.037109375,0.037109375q0-0.0185546875-0.0185546875-0.0556640625t-0.0185546875-0.0556640625q0-0.1669921875,0.2041015625-0.4638671875t0.4453125-0.556640625t0.51953125-0.5380859375t0.3154296875-0.333984375q-0.4267578125,0.2412109375-1.2802734375,0.73291015625t-1.2802734375,0.75146484375q0.0927734375,0.0927734375,0.5751953125,0.259765625t0.5380859375,0.259765625z M32.404296875,39.33203125l0.22265625-0.1484375q-0.22265625,0.111328125-0.22265625,0.1484375q1.6142578125-1.224609375,2.2080078125-1.78125q-1.70703125,0.96484375-2.857421875,1.669921875q0.3154296875,0,0.6494140625,0.111328125z M29.212890625,38.1630859375l-0.333984375,0.185546875q0.07421875-0.037109375,0.333984375-0.185546875q0.1484375-0.0927734375,0.5009765625-0.3525390625q-1.85546875,0.9833984375-2.81103515625,1.5029296875t-2.4677734375,1.4658203125t-2.62548828125,1.8369140625q0.2412109375-0.037109375,0.51025390625-0.13916015625t0.45458984375-0.185546875t0.482421875-0.2412109375t0.4453125-0.23193359375q1.9111328125-1.150390625,2.4677734375-1.521484375q0.037109375-0.0185546875,0.2412109375-0.2041015625t0.296875-0.22265625l0-0.07421875q0-0.1669921875,0.1484375-0.22265625q0.259765625-0.259765625,0.4638671875-0.3154296875q0.296875-0.07421875,0.62158203125-0.259765625t0.705078125-0.45458984375t0.56591796875-0.38037109375z M21.3828125,42.078125l0.07421875-0.07421875l-0.07421875,0.07421875q0.2783203125-0.2783203125,0.58447265625-0.54736328125t0.67724609375-0.556640625t0.62158203125-0.482421875t0.705078125-0.51025390625t0.64013671875-0.4453125t0.71435546875-0.482421875t0.65869140625-0.4453125q-1.26171875,0.6865234375-3.1171875,1.7998046875q-0.408203125,0.2041015625-1.521484375,0.8720703125q-0.22265625,0.111328125-0.22265625,0.482421875q0,0.2412109375,0.07421875,0.5380859375q0.037109375-0.07421875,0.185546875-0.22265625z M21.16015625,40.81640625l0.07421875-0.07421875l-0.07421875,0.07421875q0.3154296875-0.3154296875,0.69580078125-0.67724609375t0.6494140625-0.58447265625t0.7607421875-0.630859375t0.69580078125-0.5751953125q-0.1484375,0.0927734375-0.9091796875,0.60302734375t-1.28955078125,0.779296875t-1.02978515625,0.36181640625q0.037109375,0.0927734375,0.1298828125,0.3896484375t0.185546875,0.4453125z M17.1708984375,38.775390625q0.705078125-1.11328125,1.0947265625-1.7626953125q-0.07421875,0.0556640625-0.3525390625,0.19482421875t-0.47314453125,0.2783203125t-0.23193359375,0.28759765625q0,0.037109375,0.0185546875,0.1669921875t0.0185546875,0.22265625q0,0.3896484375-0.07421875,0.6123046875z M21.197265625,47.9599609375l0.037109375,0l0-0.037109375l-0.037109375,0.037109375q0-0.0556640625,1.17822265625-0.91845703125t1.43798828125-1.04833984375q2.3935546875-1.892578125,2.5791015625-2.0224609375q-0.7236328125,0.4453125-1.95751953125,1.3544921875t-1.75341796875,1.2431640625q-0.9091796875,0.556640625-1.150390625,0.630859375q-0.3154296875,0.1484375-0.333984375,0.2041015625q0.037109375,0.07421875,0.037109375,0.296875q0,0.185546875-0.037109375,0.259765625z M26.7080078125,45.232421875l-0.6123046875,0.333984375l0.6123046875-0.333984375q-1.85546875,1.0390625-3.228515625,1.9296875q-0.3525390625,0.185546875-0.99267578125,0.59375t-0.80712890625,0.51953125q-0.037109375,0.0185546875-0.13916015625,0.08349609375t-0.13916015625,0.08349609375t-0.111328125,0.08349609375t-0.0927734375,0.10205078125t-0.04638671875,0.10205078125t-0.02783203125,0.13916015625l0,0.0927734375q1.7626953125-1.0947265625,3.154296875-1.9853515625q0.2412109375-0.1669921875,0.73291015625-0.49169921875t0.75146484375-0.49169921875q0.0556640625-0.037109375,0.32470703125-0.19482421875t0.4267578125-0.296875t0.19482421875-0.26904296875z M24.0361328125,49.2587890625l-0.556640625,0.333984375q0.51953125-0.333984375,0.556640625-0.333984375q-1.5400390625,0.927734375-2.15234375,1.447265625q0.408203125-0.2412109375,2.15234375-1.447265625z M22.64453125,51.578125l-0.1669921875,0.111328125q-0.037109375,0,0.4267578125-0.333984375q-0.037109375,0.037109375-0.259765625,0.22265625q-0.7978515625,0.630859375-1.1875,1.0576171875q3.1728515625-1.818359375,3.4140625-1.966796875q0.259765625-0.1484375,0.78857421875-0.45458984375t0.80712890625-0.45458984375q0.111328125-0.07421875,0.185546875-0.3154296875t0.111328125-0.5751953125t0.0556640625-0.408203125q-0.1669921875,0.1298828125-1.77197265625,1.298828125t-2.40283203125,1.818359375z M26.5966796875,50.16796875q-0.66796875,0.5751953125-2.01318359375,1.6884765625t-2.01318359375,1.6884765625q2.4677734375-1.5400390625,3.599609375-2.078125q0.037109375-0.0185546875,0.13916015625-0.06494140625t0.1669921875-0.07421875t0.1298828125-0.0927734375t0.06494140625-0.12060546875l0-0.111328125q0-0.111328125-0.037109375-0.36181640625t-0.037109375-0.36181640625l0-0.111328125z M23.3681640625,55.3818359375l-0.1669921875,0.07421875q0,0.0185546875,0.32470703125-0.1669921875t0.64013671875-0.37109375l0.333984375-0.185546875q-0.296875,0.1484375-1.1318359375,0.6494140625q-1.4287109375,0.890625-1.595703125,0.9833984375q-0.07421875,0.0556640625-0.2412109375,0.1298828125t-0.2041015625,0.12060546875t-0.0185546875,0.15771484375l0,0.2041015625q0.59375-0.408203125,1.69775390625-1.076171875t1.53076171875-0.9462890625q0.2783203125-0.1669921875,0.7978515625-0.51025390625t0.7978515625-0.51025390625q0.185546875-0.1298828125,0.6123046875-0.4638671875q0-0.0556640625-0.0185546875-0.1669921875t-0.0185546875-0.1669921875q-0.111328125,0.07421875-0.296875,0.296875t-0.3154296875,0.3154296875q-0.3896484375,0.2783203125-0.8349609375,0.54736328125t-1.02978515625,0.59375t-0.86279296875,0.49169921875z M26.7451171875,54.2314453125l0-0.037109375l0,0.037109375q0.07421875-0.037109375,0.07421875-0.185546875l0-0.1484375q-0.07421875,0.0556640625-0.23193359375,0.1484375t-0.23193359375,0.1484375q0.1484375-0.07421875,0.2412109375-0.07421875t0.1484375,0.111328125z M24.685546875,59.81640625l-0.22265625,0.185546875q-0.037109375,0,0.4638671875-0.37109375q-0.0556640625,0.037109375-0.2412109375,0.185546875q-1.076171875,0.853515625-1.595703125,1.373046875q0.3896484375-0.22265625,1.1689453125-0.6865234375t1.1875-0.6865234375q0.2041015625-0.111328125,0.60302734375-0.34326171875t0.62158203125-0.34326171875q0.037109375-0.037109375,0.037109375-0.1484375q0-0.0556640625-0.037109375-0.2412109375t-0.037109375-0.2783203125l0-0.0927734375q-0.9833984375,0.705078125-1.9482421875,1.447265625z M27.46875,59.296875q-0.2412109375,0.185546875-0.2412109375,0.22265625q0.0185546875-0.0185546875,0.04638671875-0.037109375l0.08349609375-0.0556640625t0.0927734375-0.07421875t0.0185546875-0.0556640625q-0.296875,0.22265625-0.86279296875,0.67724609375t-0.84423828125,0.67724609375q0.5751953125-0.37109375,2.5791015625-1.521484375q-0.037109375-0.037109375-0.111328125-0.037109375q-0.0927734375,0-0.3154296875,0.12060546875t-0.333984375,0.12060546875q-0.0185546875,0-0.0556640625-0.0185546875t-0.0556640625-0.0185546875z M44.798828125,50.353515625q-0.0185546875,0.07421875-0.28759765625,0.22265625t-0.60302734375,0.3154296875t-0.408203125,0.22265625q-0.3154296875,0.1669921875-0.8720703125,0.51025390625t-0.6494140625,0.39892578125q1.6142578125-0.9462890625,2.2822265625-1.1689453125q0.22265625-0.07421875,0.37109375-0.07421875q0.1669921875-0.0556640625,0.1669921875-0.185546875l0-0.2412109375z M38.37890625,53.43359375q0.6123046875-0.333984375,1.818359375-1.02978515625t1.818359375-1.04833984375q0.296875-0.185546875,1.06689453125-0.630859375t1.17822265625-0.705078125q0.0556640625-0.037109375,0.15771484375-0.08349609375t0.1484375-0.06494140625t0.111328125-0.0556640625t0.10205078125-0.06494140625t0.07421875-0.07421875t0.0556640625-0.0927734375t0.02783203125-0.111328125t0.00927734375-0.13916015625q0-0.185546875-0.037109375-0.296875q-1.78125,1.11328125-4.0263671875,2.5791015625q-0.296875,0.185546875-0.8349609375,0.56591796875t-0.8349609375,0.56591796875q-0.0556640625,0.037109375-0.26904296875,0.185546875t-0.37109375,0.2783203125t-0.19482421875,0.22265625z M44.8359375,46.939453125q-0.1298828125-0.296875-0.2412109375-1.373046875q-0.07421875-0.1669921875-0.13916015625-0.52880859375t-0.08349609375-0.41748046875q-1.6328125,1.001953125-3.48828125,2.3193359375q-1.150390625,0.853515625-1.6328125,1.3359375q-0.5009765625,0.333984375-0.5009765625,0.482421875l0,0.037109375q0.8349609375-0.482421875,2.5234375-1.447265625t2.5234375-1.4658203125q0.037109375-0.0185546875,0.2412109375-0.1484375t0.296875-0.1298828125q0.1298828125,0,0.185546875,0.111328125q0.1484375,0.333984375-0.8720703125,1.150390625q-1.3544921875,1.2802734375-4.67578125,3.9892578125q0.9833984375-0.3154296875,2.59765625-1.41015625q0.6494140625-0.408203125,2.3564453125-1.55859375q0.111328125-0.0927734375,0.8349609375-0.6123046875q0.111328125-0.0556640625,0.111328125-0.111328125q0-0.037109375-0.0185546875-0.10205078125t-0.0185546875-0.12060546875z M44.1123046875,43.748046875q0,0.0185546875-0.927734375,0.6865234375t-1.95751953125,1.3916015625t-1.17822265625,0.853515625q0.9462890625-0.5751953125,2.9130859375-1.7255859375q0.185546875-0.111328125,0.556640625-0.3154296875t0.556640625-0.3154296875q0.1484375-0.0927734375,0.1484375-0.2041015625q0-0.0556640625-0.04638671875-0.185546875t-0.06494140625-0.185546875z M41.71875,44.2490234375l0.296875-0.2412109375l-0.482421875,0.3525390625q0.07421875-0.037109375,0.185546875-0.111328125q1.26171875-0.927734375,1.595703125-1.150390625q0.07421875-0.0556640625,0.185546875-0.111328125t0.1669921875-0.10205078125t0.0556640625-0.12060546875q0-0.0927734375-0.111328125-0.2041015625q-1.1875,1.0205078125-3.8037109375,3.005859375q0.8349609375-0.556640625,1.9111328125-1.3173828125z M43.166015625,41.85546875q0-0.0185546875-0.0185546875,0.037109375q-0.07421875,0.1484375-0.111328125,0.185546875q-0.0556640625,0.07421875-0.1298828125,0.1484375t-0.1669921875,0.15771484375t-0.1484375,0.13916015625q-0.779296875,0.630859375-3.04296875,1.9853515625q0.7236328125-0.333984375,2.0966796875-1.26171875q0.185546875-0.1298828125,0.705078125-0.5009765625t0.81640625-0.556640625q0.111328125-0.111328125,0.111328125-0.1484375q0-0.0185546875-0.111328125-0.185546875z M42.4052734375,40.7421875q0.0185546875,0.0556640625-0.49169921875,0.54736328125t-0.62158203125,0.56591796875q-1.1875,1.0390625-1.85546875,1.55859375q0.3154296875-0.1669921875,0.927734375-0.5380859375t0.927734375-0.5380859375q0.1298828125-0.07421875,0.43603515625-0.28759765625t0.5751953125-0.34326171875t0.51025390625-0.1298828125q0.037109375,0,0.0927734375,0.0185546875t0.0927734375,0.0185546875q-0.0927734375-0.1484375-0.296875-0.43603515625t-0.296875-0.43603515625z M41.64453125,39.7216796875q-0.07421875-0.0556640625-0.19482421875-0.21337890625t-0.19482421875-0.21337890625q-0.630859375,0.7236328125-2.5048828125,2.2822265625q0.1669921875-0.0927734375,0.853515625-0.51953125t1.373046875-0.86279296875t0.66796875-0.47314453125z M40.419921875,38.6640625q-0.07421875-0.0185546875-0.23193359375-0.1484375t-0.26904296875-0.1298828125q-0.07421875,0-0.185546875,0.111328125q-0.2412109375,0.2412109375-0.7607421875,0.6865234375q-1.1875,1.11328125-1.85546875,1.70703125q0.185546875-0.111328125,1.49365234375-0.890625t2.03173828125-1.1875q-0.1484375-0.07421875-0.22265625-0.1484375z M37.19140625,37.40234375q0.0556640625,0-0.333984375,0.49169921875t-0.5009765625,0.60302734375q-0.1484375,0.1669921875-0.45458984375,0.5380859375t-0.45458984375,0.5380859375q1.3173828125-0.7421875,3.080078125-1.7998046875q-0.22265625-0.037109375-0.66796875-0.19482421875t-0.66796875-0.17626953125z M36.5048828125,37.216796875l-0.333984375,0q-0.6123046875,0-0.7236328125-0.111328125q-0.037109375,0.1484375-0.15771484375,0.30615234375t-0.23193359375,0.259765625t-0.30615234375,0.25048828125t-0.25048828125,0.2041015625q-0.2041015625,0.2041015625-1.669921875,1.373046875q0.07421875,0.037109375,0.2783203125-0.06494140625t0.3896484375-0.23193359375t0.41748046875-0.296875t0.26904296875-0.2041015625q1.1875-0.853515625,1.373046875-0.96484375q0-0.0185546875,0.17626953125-0.13916015625t0.4267578125-0.23193359375t0.38037109375-0.111328125q0.111328125,0,0.111328125,0.111328125q0,0.07421875-0.037109375,0.111328125q0.0556640625-0.0185546875,0.15771484375-0.07421875t0.15771484375-0.07421875q-0.37109375-0.0927734375-0.4267578125-0.111328125z M30.5859375,36.9384765625l-0.4638671875,0.2412109375q0.1298828125-0.0556640625,0.4638671875-0.2412109375q-0.51953125,0.1298828125-0.8720703125,0.1298828125l-0.2041015625,0q-0.07421875,0-0.2412109375-0.02783203125t-0.2412109375-0.02783203125l-0.111328125,0q-2.375,1.6142578125-2.8203125,1.9482421875q-2.708984375,1.9111328125-3.9150390625,2.89453125q1.224609375-0.890625,2.783203125-1.82763671875t2.671875-1.5400390625t2.9501953125-1.54931640625z M26.8564453125,37.068359375l-0.296875,0q-0.4638671875,0-0.6123046875,0.111328125q-0.22265625,0.185546875-0.6494140625,0.54736328125t-0.6494140625,0.54736328125q-1.6328125,1.3359375-2.5048828125,2.1337890625q3.451171875-2.0224609375,5.7705078125-3.33984375q-0.0927734375-0.0927734375-0.296875-0.0927734375q-0.0927734375,0-0.3154296875,0.04638671875t-0.333984375,0.04638671875l-0.111328125,0z M19.2119140625,36.9755859375l-0.037109375,0.037109375l0.037109375-0.037109375q-0.0927734375,0.0927734375-0.185546875,0.0927734375q-0.037109375,0-0.12060546875-0.02783203125t-0.10205078125-0.02783203125q-0.0556640625,0-0.1484375,0.0927734375q-0.0556640625,0.0927734375-0.17626953125,0.2783203125t-0.17626953125,0.2783203125q-0.111328125,0.1669921875-0.34326171875,0.5380859375t-0.34326171875,0.5380859375q1.0947265625-0.6123046875,2.857421875-1.669921875l-0.111328125,0q-0.0556640625,0-0.19482421875,0.0185546875t-0.19482421875,0.0185546875q-0.111328125,0-0.22265625-0.06494140625t-0.1484375-0.06494140625l-0.07421875,0l-0.3154296875,0z M21.494140625,50.5576171875l-0.037109375,0.037109375l0.037109375-0.037109375q-0.1484375,0-0.1484375,0.1484375l0,0.037109375q0.037109375-0.07421875,0.1484375-0.185546875z M21.3828125,53.8974609375l0,0.1484375q3.0615234375-2.5419921875,3.6923828125-3.04296875q-0.7236328125,0.3896484375-2.3564453125,1.3359375q-0.22265625,0.111328125-0.6123046875,0.34326171875t-0.6123046875,0.34326171875q-0.1484375,0.0927734375-0.1484375,0.296875q0,0.07421875,0.0185546875,0.23193359375t0.0185546875,0.23193359375l0,0.111328125z M19.97265625,59.0927734375l0,0.07421875l0-0.07421875q-0.0185546875,0.1669921875-0.185546875,0.28759765625t-0.185546875,0.13916015625q-0.1298828125,0.22265625-0.3896484375,0.482421875q-0.5380859375,0.6865234375-1.0205078125,1.224609375q4.2861328125-3.005859375,6.642578125-4.2861328125q1.1689453125-0.6494140625,1.6884765625-0.8349609375q0.1669921875-0.0556640625,0.22265625-0.30615234375t0.0556640625-0.62158203125t0.0185546875-0.482421875q-3.04296875,1.966796875-4.638671875,2.8759765625q-1.11328125,0.556640625-1.1689453125,0.5751953125q0,0.556640625-0.3525390625,0.7978515625q-0.1484375,0.0927734375-0.38037109375,0.111328125t-0.30615234375,0.037109375z M17.3564453125,61.560546875q0.1298828125-0.0185546875,0.34326171875-0.2412109375t0.4638671875-0.56591796875t0.28759765625-0.39892578125q0.3896484375-0.4453125,0.8720703125-1.0576171875q-0.037109375-0.0556640625-0.23193359375,0.02783203125t-0.45458984375,0.25048828125t-0.5009765625,0.333984375t-0.45458984375,0.3154296875t-0.25048828125,0.1669921875q-0.259765625,0.1484375-0.259765625,0.7978515625q0,0.07421875,0.0185546875,0.22265625t0.0185546875,0.2041015625q0.0556640625-0.0556640625,0.1484375-0.0556640625z M17.931640625,59.37109375l-0.111328125,0.07421875q0-0.037109375,0.111328125-0.07421875l-0.07421875,0q-0.037109375,0-0.1669921875,0.0185546875t-0.185546875,0.0185546875l-0.07421875,0q-0.22265625,0-0.22265625,0.185546875l0,0.22265625q0.333984375-0.22265625,0.7236328125-0.4453125z M19.67578125,61.44921875l0.037109375,0l-0.037109375-0.037109375l-0.037109375,0q0.037109375,0,0.037109375,0.037109375q0.07421875-0.037109375,0.22265625-0.037109375q0.07421875,0,0.2412109375,0.0185546875t0.22265625,0.0185546875q0.111328125,0.0185546875,0.28759765625-0.08349609375t0.39892578125-0.26904296875t0.296875-0.2041015625q0.3896484375-0.2783203125,1.21533203125-0.80712890625t1.21533203125-0.78857421875q0.22265625-0.1669921875,1.04833984375-0.77001953125t1.27099609375-0.95556640625q0.5009765625-0.3896484375,0.5380859375-0.51953125l0-0.6123046875q-1.0947265625,0.408203125-2.931640625,1.55859375q-2.3193359375,1.3916015625-5.2880859375,3.525390625q0.1298828125,0.0185546875,0.3154296875-0.08349609375t0.259765625-0.10205078125q0.0185546875,0,0.0556640625,0.0185546875t0.0556640625,0.0185546875l0.07421875,0q0.0556640625,0,0.1484375-0.0185546875t0.1298828125-0.0185546875q0.111328125,0,0.22265625,0.111328125z M22.2919921875,61.5234375q0.07421875,0,0.12060546875-0.0556640625t0.10205078125-0.1484375t0.0927734375-0.1298828125q-0.0927734375,0.0556640625-0.28759765625,0.1669921875t-0.28759765625,0.1669921875l0.185546875,0l0.07421875,0z M23.5908203125,61.560546875l0.037109375-0.037109375l-0.037109375,0.037109375q0.07421875-0.07421875,0.259765625-0.07421875l0.1484375,0q0.1298828125,0,0.1669921875-0.037109375q0.0185546875-0.0185546875,0.2412109375-0.2041015625t0.3525390625-0.2783203125q0.1298828125-0.111328125,0.62158203125-0.51953125t0.78857421875-0.630859375q-0.5380859375,0.296875-1.58642578125,0.9091796875t-1.56787109375,0.927734375q0.037109375,0.037109375,0.111328125,0.037109375q0.0556640625,0,0.2041015625-0.06494140625t0.22265625-0.06494140625l0.037109375,0z M27.654296875,61.375q0.185546875-0.0556640625,0.34326171875-0.3896484375t0.296875-0.8720703125t0.15771484375-0.59375q-2.189453125,1.224609375-3.48828125,2.00390625l0.07421875,0q0.07421875,0,0.2412109375-0.07421875t0.2412109375-0.07421875l0.5009765625,0l0.22265625,0q0.07421875,0,0.185546875,0.0556640625t0.1669921875,0.0556640625t0.15771484375-0.037109375t0.17626953125-0.037109375q0.111328125,0.0185546875,0.30615234375-0.02783203125t0.26904296875-0.04638671875q0.111328125,0,0.1484375,0.037109375z M30.4189453125,61.6162109375q0.037109375,0,0.1484375-0.02783203125t0.1669921875-0.02783203125l0.07421875,0q0.0927734375-0.037109375,0.19482421875-0.04638671875t0.13916015625-0.0556640625t0.1298828125-0.19482421875q0.66796875-0.927734375,1.2431640625-2.0595703125l-0.07421875,0q-0.1484375,0-0.22265625-0.037109375q-0.0185546875,0.0185546875-0.07421875,0.04638671875t-0.0927734375,0.0556640625t-0.07421875,0.02783203125q-0.185546875,0.1484375-0.556640625,0.37109375q-0.185546875,0.1298828125-0.5751953125,0.39892578125t-0.5751953125,0.39892578125q-1.1318359375,0.779296875-1.669921875,1.0576171875q0.185546875,0.0927734375,0.3154296875,0.0927734375q0.111328125,0,0.3154296875-0.04638671875t0.2783203125-0.04638671875q0.1484375,0.0185546875,0.45458984375,0.04638671875t0.45458984375,0.04638671875z M34.037109375,61.412109375l-0.037109375,0l0.037109375,0l0.111328125,0q0.1484375,0,0.4267578125-0.037109375t0.408203125-0.037109375q0.333984375,0.037109375,0.8720703125-0.37109375q0.296875-0.22265625,0.8349609375-0.6123046875t0.99267578125-0.73291015625t0.84423828125-0.64013671875q2.2265625-1.5771484375,4.3974609375-3.33984375q-0.7236328125,0.408203125-2.14306640625,1.298828125t-2.14306640625,1.3173828125q-1.447265625,0.853515625-5.6962890625,3.228515625l0.185546875,0q0.1298828125,0,0.39892578125-0.037109375t0.39892578125-0.037109375l0.111328125,0z M38.787109375,61.5234375l0.111328125,0l-0.111328125,0q0.3154296875,0,0.8720703125-0.556640625q-0.1484375,0.1484375-0.45458984375,0.3525390625t-0.41748046875,0.2041015625z"/><path fill="#11120c" d="M79.42866015625,47.486c0,4.56-1.558,7.98-4.142,10.184c-2.356,1.976-5.662,2.85-9.424,2.85l-7.258,0c-0.76,0-1.102-0.19-1.102-1.064l0-24.092c0-0.798,0.228-1.14,1.178-1.14l5.472,0c4.37,0,7.334,0.494,9.842,1.938c3.42,1.976,5.434,5.7,5.434,11.324z M74.18466015625,47.448c0-3.458-1.026-6.08-2.964-7.524c-1.558-1.14-3.572-1.558-6.004-1.558l-2.774,0l0,18.05l2.926,0c2.622,0,4.826-0.418,6.422-2.014c1.52-1.52,2.394-3.8,2.394-6.954z"/></svg>
